<?xml version="1.0" encoding="UTF-8"?>
<svg version="1.1" xmlns="http://www.w3.org/2000/svg" width="512" height="512">
<path d="M0 0 C1.47919922 0.32145996 1.47919922 0.32145996 2.98828125 0.64941406 C65.23652836 14.66138843 126.5815025 55.00726887 164 107 C164.7321875 107.93714844 165.464375 108.87429687 166.21875 109.83984375 C188.6737436 138.65972109 204.25728753 172.34309391 212 208 C212.20882813 208.91346191 212.41765625 209.82692383 212.6328125 210.76806641 C215.80369768 225.06464443 216.38755654 239.22801648 216.4375 253.8125 C216.44376404 254.66551697 216.45002808 255.51853394 216.45648193 256.3973999 C216.53156596 272.55991807 214.82558071 288.52828812 210.6875 304.1875 C210.47585205 305.00589355 210.2642041 305.82428711 210.04614258 306.66748047 C207.84159702 314.9579832 205.15317854 323.02387896 202 331 C201.71817871 331.71333496 201.43635742 332.42666992 201.14599609 333.16162109 C193.77561314 351.44717085 183.61908334 367.89409405 171 383 C170.41476562 383.77214844 169.82953125 384.54429687 169.2265625 385.33984375 C166.83805691 388.4297359 165.04595231 389.97984548 161.4375 391.5625 C156.97684399 392.13021986 154.83555085 391.31110775 151.25 388.75 C149.38719719 386.14207607 149.19776742 384.20159331 149 381 C150.03017374 378.35265895 151.07848285 376.08882965 152.4375 373.625 C153.17626606 372.22160927 153.91453164 370.81795499 154.65234375 369.4140625 C155.23024658 368.33366699 155.23024658 368.33366699 155.81982422 367.23144531 C157.78173082 363.52192394 159.63565074 359.75921299 161.5 356 C162.17658477 354.64558417 162.85362148 353.29139394 163.53125 351.9375 C164.0159375 350.968125 164.500625 349.99875 165 349 C163.75476563 350.47339844 163.75476563 350.47339844 162.484375 351.9765625 C114.72455177 407.65902933 46.35802601 439.43093421 -26.4140625 445.58984375 C-65.40250061 448.32848404 -113.92147583 445.7955592 -147.75 424 C-157.58428313 418.10822382 -167.82208796 416.20187524 -179.14453125 418.69140625 C-200.66165769 425.29293798 -218.1620265 443.97794628 -231.6953125 461.25 C-236.40080848 466.86469351 -241.75165427 471.89766698 -247 477 C-236.072771 475.61241537 -228.1329772 467.90277897 -220 461 C-207.65768122 450.52458658 -196.81151924 442.40124448 -179.9375 443 C-161.08502358 444.84902954 -143.54622446 452.30460209 -126 459 C-68.98035259 480.66682499 -12.53348284 489.45794298 45.21313477 463.95581055 C54.08636364 459.87373799 62.18413057 454.8992874 70.15258789 449.25341797 C75.23040536 445.74839443 78.77913524 444.09374823 85 444 C88.53205291 445.17735097 90.34629611 446.03365512 92.4375 449.125 C93.50461019 454.57911873 92.89879216 459.23698461 90.375 464.1875 C80.64885095 475.70530808 66.10561009 480.66963562 52.25 485.625 C51.59470306 485.86123077 50.93940613 486.09746155 50.26425171 486.34085083 C39.9662374 490.04651117 29.72420907 493.73137496 19 496 C18.11103027 496.19174805 17.22206055 496.38349609 16.30615234 496.58105469 C-14.64608346 502.92784196 -48.08308322 501.94967921 -79 496 C-80.0430127 495.80696289 -81.08602539 495.61392578 -82.16064453 495.41503906 C-111.62999552 489.80577676 -141.5879106 479.56009111 -168.26464844 465.83203125 C-174.53786416 462.82427672 -180.81466676 463.36872531 -187.3125 465.4375 C-195.59860203 468.74275954 -202.11826248 474.62794798 -208.9296875 480.23046875 C-233.75464234 500.64177069 -233.75464234 500.64177069 -251.375 500.4375 C-252.75981567 500.42505249 -252.75981567 500.42505249 -254.17260742 500.41235352 C-264.24129167 500.16287814 -271.86386072 498.02072453 -279.2265625 490.8984375 C-292.72736394 476.44603772 -296.07708022 456.2028895 -296.23828125 436.99609375 C-296.24780319 436.02742874 -296.25732513 435.05876373 -296.26713562 434.06074524 C-296.29191767 430.8529661 -296.3042472 427.64536303 -296.3125 424.4375 C-296.31644775 423.30969116 -296.32039551 422.18188232 -296.32446289 421.01989746 C-296.35156881 404.15589288 -295.48309445 387.54085553 -294 370.75 C-291.56249817 343.06670332 -291.69313268 315.458571 -291.94767761 287.69078159 C-292.38614447 239.65199319 -289.96245351 191.79834815 -274 146 C-273.74138184 145.23848633 -273.48276367 144.47697266 -273.21630859 143.69238281 C-262.31649112 111.73291799 -245.50874778 83.28243299 -222 59 C-221.50032715 58.4745459 -221.0006543 57.9490918 -220.48583984 57.40771484 C-212.58033609 49.10829 -204.26827915 41.74520509 -195 35 C-194.43651855 34.58685547 -193.87303711 34.17371094 -193.29248047 33.74804688 C-161.15792514 10.48804755 -161.15792514 10.48804755 -147 10.8125 C-146.38125 10.81894531 -145.7625 10.82539063 -145.125 10.83203125 C-143 11 -143 11 -140.26953125 11.703125 C-135.78062241 12.11072007 -132.77936663 10.65463423 -128.6875 8.9375 C-117.07019259 4.38636625 -105.20245554 1.51765135 -93 -1 C-92.15824219 -1.18079102 -91.31648437 -1.36158203 -90.44921875 -1.54785156 C-61.86562293 -7.43064563 -28.39792272 -6.21086392 0 0 Z " fill="#66AFFE" transform="translate(296,8)"/>
<path d="M0 0 C1.47919922 0.32145996 1.47919922 0.32145996 2.98828125 0.64941406 C65.23652836 14.66138843 126.5815025 55.00726887 164 107 C164.7321875 107.93714844 165.464375 108.87429687 166.21875 109.83984375 C188.6737436 138.65972109 204.25728753 172.34309391 212 208 C212.20882813 208.91346191 212.41765625 209.82692383 212.6328125 210.76806641 C215.80369768 225.06464443 216.38755654 239.22801648 216.4375 253.8125 C216.44376404 254.66551697 216.45002808 255.51853394 216.45648193 256.3973999 C216.53156596 272.55991807 214.82558071 288.52828812 210.6875 304.1875 C210.47585205 305.00589355 210.2642041 305.82428711 210.04614258 306.66748047 C207.84159702 314.9579832 205.15317854 323.02387896 202 331 C201.71817871 331.71333496 201.43635742 332.42666992 201.14599609 333.16162109 C193.77561314 351.44717085 183.61908334 367.89409405 171 383 C170.41476562 383.77214844 169.82953125 384.54429687 169.2265625 385.33984375 C166.83805691 388.4297359 165.04595231 389.97984548 161.4375 391.5625 C156.97684399 392.13021986 154.83555085 391.31110775 151.25 388.75 C149.38719719 386.14207607 149.19776742 384.20159331 149 381 C150.03029124 378.35235698 151.07863557 376.08920026 152.4375 373.625 C153.18395658 372.2046177 153.93003974 370.78403911 154.67578125 369.36328125 C155.25513428 368.27974365 155.25513428 368.27974365 155.84619141 367.17431641 C157.66372484 363.74923119 159.39377242 360.2817727 161.125 356.8125 C161.42462646 356.22098145 161.72425293 355.62946289 162.03295898 355.02001953 C163.03882859 353.02120023 164.0224794 351.01284923 165 349 C165.46680176 348.04367676 165.93360352 347.08735352 166.41455078 346.10205078 C179.65029748 318.30740277 184.312408 289.69372565 184.4375 259.1875 C184.44403595 258.2382666 184.4505719 257.2890332 184.45730591 256.31103516 C184.52945856 238.88588733 182.68077932 222.02290201 178.3125 205.125 C178.0554126 204.12509033 177.7983252 203.12518066 177.53344727 202.0949707 C163.69147818 149.9441504 131.90246083 100.13504179 89 67 C88.04351562 66.2265625 87.08703125 65.453125 86.1015625 64.65625 C42.51799746 29.96504962 -15.40025631 9.75683427 -71.2890625 15.72265625 C-90.89146719 18.04924813 -109.30773364 21.96255676 -127.7890625 28.86328125 C-131 30 -131 30 -133 30 C-133.04125 30.886875 -133.0825 31.77375 -133.125 32.6875 C-134.2656169 37.00554971 -136.39326416 38.63850641 -140 41 C-144.23985869 43.2215341 -148.58581344 45.19615109 -152.9375 47.1875 C-167.80316397 54.13532333 -180.59422681 62.1902912 -193 73 C-193.96421875 73.83015625 -194.9284375 74.6603125 -195.921875 75.515625 C-224.81864566 100.86432901 -244.45155585 137.66852256 -253.9375 174.625 C-254.18983398 175.60428467 -254.44216797 176.58356934 -254.70214844 177.5925293 C-258.77555205 193.72898294 -262.13259925 209.96449277 -263.640625 226.55078125 C-264 230 -264 230 -264.50364685 231.9539032 C-265.01763194 234.07268343 -265.19785194 236.01067746 -265.30102539 238.18676758 C-265.34069931 239.00400803 -265.38037323 239.82124847 -265.42124939 240.66325378 C-265.45883865 241.54395035 -265.49642792 242.42464691 -265.53515625 243.33203125 C-265.57689468 244.26022171 -265.61863312 245.18841217 -265.66163635 246.14472961 C-266.06659936 255.65550537 -266.23607703 265.16793542 -266.38815308 274.68548584 C-266.66296061 291.40336915 -267.16356871 308.08241533 -268.06759644 324.77755737 C-268.75810538 337.70956281 -269.17985943 350.64048535 -269.50390625 363.5859375 C-269.52474714 364.40939541 -269.54558804 365.23285332 -269.56706047 366.0812645 C-269.77830262 374.44352545 -269.98135741 382.80587459 -270.16130733 391.16887093 C-270.23094783 394.33442832 -270.30719296 397.49980674 -270.38470268 400.66518021 C-270.41923741 402.14128444 -270.45079827 403.61746201 -270.47902107 405.09370041 C-270.63962864 413.45688976 -271.19656618 421.60570199 -272.54946899 429.87294006 C-273.30798395 435.13766478 -273.36832402 440.37675725 -273.375 445.6875 C-273.39949219 446.72455078 -273.42398437 447.76160156 -273.44921875 448.83007812 C-273.48108144 457.31086282 -272.03314489 465.14708623 -266.6875 471.9375 C-261.66765848 475.78993651 -257.82166849 478.7226796 -251.15625 478.3125 C-238.676295 476.50381087 -229.64644533 469.73940881 -220.59765625 461.3359375 C-208.66895189 450.60907252 -196.52708191 442.48236205 -180.125 443.0625 C-161.19069242 444.74971553 -143.59951898 452.28426563 -126 459 C-68.98035259 480.66682499 -12.53348284 489.45794298 45.21313477 463.95581055 C54.08636364 459.87373799 62.18413057 454.8992874 70.15258789 449.25341797 C75.23040536 445.74839443 78.77913524 444.09374823 85 444 C88.53205291 445.17735097 90.34629611 446.03365512 92.4375 449.125 C93.50461019 454.57911873 92.89879216 459.23698461 90.375 464.1875 C80.64885095 475.70530808 66.10561009 480.66963562 52.25 485.625 C51.59470306 485.86123077 50.93940613 486.09746155 50.26425171 486.34085083 C39.9662374 490.04651117 29.72420907 493.73137496 19 496 C18.11103027 496.19174805 17.22206055 496.38349609 16.30615234 496.58105469 C-14.64608346 502.92784196 -48.08308322 501.94967921 -79 496 C-80.0430127 495.80696289 -81.08602539 495.61392578 -82.16064453 495.41503906 C-111.62999552 489.80577676 -141.5879106 479.56009111 -168.26464844 465.83203125 C-174.53786416 462.82427672 -180.81466676 463.36872531 -187.3125 465.4375 C-195.59860203 468.74275954 -202.11826248 474.62794798 -208.9296875 480.23046875 C-233.75464234 500.64177069 -233.75464234 500.64177069 -251.375 500.4375 C-252.75981567 500.42505249 -252.75981567 500.42505249 -254.17260742 500.41235352 C-264.24129167 500.16287814 -271.86386072 498.02072453 -279.2265625 490.8984375 C-292.72736394 476.44603772 -296.07708022 456.2028895 -296.23828125 436.99609375 C-296.24780319 436.02742874 -296.25732513 435.05876373 -296.26713562 434.06074524 C-296.29191767 430.8529661 -296.3042472 427.64536303 -296.3125 424.4375 C-296.31644775 423.30969116 -296.32039551 422.18188232 -296.32446289 421.01989746 C-296.35156881 404.15589288 -295.48309445 387.54085553 -294 370.75 C-291.56249817 343.06670332 -291.69313268 315.458571 -291.94767761 287.69078159 C-292.38614447 239.65199319 -289.96245351 191.79834815 -274 146 C-273.74138184 145.23848633 -273.48276367 144.47697266 -273.21630859 143.69238281 C-262.31649112 111.73291799 -245.50874778 83.28243299 -222 59 C-221.50032715 58.4745459 -221.0006543 57.9490918 -220.48583984 57.40771484 C-212.58033609 49.10829 -204.26827915 41.74520509 -195 35 C-194.43651855 34.58685547 -193.87303711 34.17371094 -193.29248047 33.74804688 C-161.15792514 10.48804755 -161.15792514 10.48804755 -147 10.8125 C-146.38125 10.81894531 -145.7625 10.82539063 -145.125 10.83203125 C-143 11 -143 11 -140.26953125 11.703125 C-135.78062241 12.11072007 -132.77936663 10.65463423 -128.6875 8.9375 C-117.07019259 4.38636625 -105.20245554 1.51765135 -93 -1 C-92.15824219 -1.18079102 -91.31648437 -1.36158203 -90.44921875 -1.54785156 C-61.86562293 -7.43064563 -28.39792272 -6.21086392 0 0 Z " fill="#25356D" transform="translate(296,8)"/>
<path d="M0 0 C4.97257284 3.8482595 8.02518187 8.57554562 10 14.5 C13.64259671 48.35823501 -8.40868251 84.48412077 -24.8828125 112.1953125 C-29.09713894 119.30714394 -32.73259162 126.63051377 -36.22070312 134.12158203 C-47.06500054 157.39781321 -47.06500054 157.39781321 -54 166.5 C-54.474375 167.15484375 -54.94875 167.8096875 -55.4375 168.484375 C-63.01909376 178.21983062 -74.92340908 185.27519243 -87 187.5 C-107.52426998 189.48195275 -124.99937392 183.57092921 -140.98608398 170.70239258 C-150.29578499 162.86332732 -159.37569048 154.169126 -167.1015625 144.76171875 C-171.99760621 138.98822752 -178.25099261 136.01480081 -185.7265625 134.98828125 C-207.60100809 134.34229457 -223.14599738 149.28389025 -239 162.5 C-266.00481979 184.93496948 -266.00481979 184.93496948 -278.28125 184.7734375 C-284.47495907 184.15050699 -287.91301417 179.76417679 -291.703125 175.28125 C-294.83632914 170.97781298 -295.7880483 167.312348 -295.703125 162.01171875 C-294.26088092 154.80851083 -290.15444347 148.58628028 -286.5625 142.25610352 C-285.7890625 140.89183228 -285.7890625 140.89183228 -285 139.5 C-284.401875 138.45062256 -283.80375 137.40124512 -283.1875 136.32006836 C-277.13046128 125.47086445 -272.5780605 114.09644142 -268 102.5625 C-262.83578494 89.57601801 -257.48605074 76.88556741 -251 64.5 C-250.48123291 63.48204346 -249.96246582 62.46408691 -249.42797852 61.4152832 C-239.95496364 42.94672039 -225.87349802 24.98241181 -206 17.5 C-188.98870315 12.55716064 -169.36744915 17.50658437 -154.23828125 25.59375 C-143.80560747 31.73505857 -135.18771172 39.70105759 -126.44726562 47.96875 C-115.07651077 59.64279504 -115.07651077 59.64279504 -100.24609375 64.71875 C-91.48595298 63.86558846 -84.66258323 57.83395068 -79 51.5 C-75.56475992 47.29410856 -72.33694953 42.93058877 -69.0859375 38.58203125 C-56.42310067 21.69696585 -24.17890314 -14.72458993 0 0 Z " fill="#26366D" transform="translate(387,158.5)"/>
<path d="M0 0 C-0.7121809 26.93338683 -17.22114602 56.93247275 -30.8125 79.46728516 C-35.36566324 87.22792038 -38.76925061 95.41723128 -42.12084961 103.75463867 C-48.40103651 119.29439958 -55.70230315 132.54636819 -71.26171875 140.09765625 C-80.23723138 143.05535014 -90.70881459 141.70917211 -99.07421875 137.66796875 C-109.58364108 131.67661583 -118.35025323 124.37672751 -127 116 C-127.76441406 115.26394531 -128.52882812 114.52789062 -129.31640625 113.76953125 C-132.35989118 110.78379746 -135.1850593 107.79437182 -137.8125 104.4375 C-144.89590945 96.05227476 -156.13206038 90.72727433 -166.91015625 89.5859375 C-192.29491244 88.29229693 -211.67325758 103.08889853 -230.04370117 118.81225586 C-235.71721532 123.65487416 -241.57170214 128.25434266 -247.47412109 132.81347656 C-248.83303495 133.87016798 -250.17737037 134.94554706 -251.51953125 136.0234375 C-252.21433594 136.57257813 -252.90914062 137.12171875 -253.625 137.6875 C-254.19476563 138.14511719 -254.76453125 138.60273438 -255.3515625 139.07421875 C-257 140 -257 140 -261 140 C-261.23274331 137.14765648 -261.2921131 135.48090645 -259.78515625 133 C-258.93244141 132.01 -258.93244141 132.01 -258.0625 131 C-255.07884471 127.3606624 -252.26611436 123.66608921 -249.5625 119.8125 C-248.88316406 118.84957031 -248.20382813 117.88664062 -247.50390625 116.89453125 C-239.51416604 104.8121949 -233.27268789 91.73108692 -226.92993164 78.7434082 C-217.19008338 58.83694949 -206.60808726 40.03940735 -190 25 C-189.35675781 24.40703125 -188.71351563 23.8140625 -188.05078125 23.203125 C-181.91990948 18.46865569 -174.36317238 19.17144769 -167 20 C-154.79069185 22.89078327 -144.91071086 31.64247085 -136 40 C-134.69319212 41.1523209 -133.38098808 42.29856213 -132.0625 43.4375 C-129.82589722 45.3699248 -127.65283016 47.33188564 -125.515625 49.375 C-118.87336725 55.67170677 -112.03253111 60.60942254 -104 65 C-103.20335937 65.45632812 -102.40671875 65.91265625 -101.5859375 66.3828125 C-92.89040904 70.65587288 -81.73785014 70.44244064 -72.48828125 68.1171875 C-65.7845381 65.52495903 -60.3786877 61.70513152 -55 57 C-54.23816406 56.35804688 -53.47632813 55.71609375 -52.69140625 55.0546875 C-45.03245335 48.46772969 -38.88698816 40.88438784 -32.53125 33.0703125 C-28.25045025 27.87786096 -23.8569959 22.7812298 -19.45239258 17.69360352 C-18.4599587 16.53634788 -17.47845063 15.36965596 -16.5065918 14.19506836 C-13.33978211 10.39397302 -10.0680453 7.16799795 -6.1875 4.0625 C-5.23230469 3.29035156 -4.27710938 2.51820313 -3.29296875 1.72265625 C-1 0 -1 0 0 0 Z " fill="#FDD87E" transform="translate(371,185)"/>
</svg>
